<svg xmlns="http://www.w3.org/2000/svg" width="512" height="512" viewBox="0 0 512 512">
  <rect width="512" height="512" rx="80" fill="#1a1a2e"/>
  <g transform="translate(32, 14) scale(18.7)">
    <path d="M20 13c0 5-3.5 7.5-7.66 8.95a1 1 0 0 1-.67-.01C7.5 20.5 4 18 4 13V6a1 1 0 0 1 1-1c2 0 4.5-1.2 6.24-2.72a1.17 1.17 0 0 1 1.52 0C14.51 3.81 17 5 19 5a1 1 0 0 1 1 1z"
          fill="#0f0f23" stroke="#4ade80" stroke-width="0.54"/>
    <text x="12" y="15" font-family="'Barlow Condensed',sans-serif" font-size="8.5" font-weight="700"
          fill="#4ade80" text-anchor="middle" letter-spacing="-0.3">OM</text>
  </g>
</svg>
