<svg xmlns="http://www.w3.org/2000/svg" viewBox="0 0 1600 800" fill="none" stroke="#fff" stroke-width="1" stroke-linecap="round" stroke-miterlimit="4"><path d="M92.67,796C92.67,796,137.276,778.672,141.521,767.677C144.37,760.296,139.855,749.986,133.793,743.434C125.384,734.346,106.068,729.46,88.442,724.996C65.786,719.257,8.04,716.118,8.04,716.118"/><path d="M1596,471.62C1596,471.62,1539.25,467.486,1503.518,468.766C1453.982,470.54,1374.157,485.803,1326.633,486.951C1294.653,487.723,1275.2,487.975,1246.231,482.592C1210.315,475.917,1158.655,458.856,1128.486,444.444C1107.628,434.481,1090.013,423.392,1078.932,412.121C1071.224,404.281,1064.438,395.313,1063.702,387.879C1063.131,382.101,1066.336,376.015,1069.853,371.717C1073.483,367.282,1077.816,364.887,1085.427,361.891C1101.473,355.575,1137.68,348.978,1165.829,346.664C1196.399,344.151,1223.795,346.185,1262.312,348.895C1320.278,352.974,1418.182,374.355,1479.397,374.492C1524.249,374.593,1596,361.272,1596,361.272"/><path d="M1447.236,4.452C1447.236,4.452,1485.49,10.555,1503.518,10.377C1520.227,10.212,1551.759,4.333,1551.759,4.333"/><path d="M313.568,795.886C313.568,795.886,318.851,776.578,317.738,767.677C316.669,759.133,313.905,751.686,307.611,743.434C297.662,730.393,277.108,713.404,255.889,703.03C229.773,690.262,195.501,684.439,159.46,678.788C114.936,671.806,8.04,668.964,8.04,668.964"/><path d="M1596,524.443C1596,524.443,1390.447,535.523,1318.593,531.88C1272.641,529.55,1240.878,525.715,1206.03,517.378C1174.339,509.796,1147.166,498.823,1117.588,485.941C1085.953,472.164,1048.793,453.237,1022.351,436.364C1001.581,423.11,980.994,410.173,969.859,395.96C961.73,385.582,954.87,372.392,955.646,363.636C956.222,357.136,961.495,351.928,966.491,347.475C972.183,342.401,978.489,339.497,988.945,335.894C1009.558,328.79,1051.32,321.42,1085.427,317.579C1123.237,313.321,1158.612,313.153,1206.03,313.149C1274.197,313.144,1384.123,325.879,1455.276,322.264C1508.979,319.536,1596,302.709,1596,302.709"/><path d="M1340.567,4C1340.567,4,1449.688,42.351,1487.437,49.807C1510.313,54.326,1525.324,55.134,1543.719,54.756C1561.487,54.392,1596,47.989,1596,47.989"/><path d="M526.131,796C526.131,796,488.178,779.231,466.332,765.357C436.14,746.183,395.107,704.921,364.794,686.869C343.255,674.041,328.562,667.649,305.528,660.672C276.055,651.745,241.311,646.694,201.005,642.511C146.63,636.868,8.04,635.793,8.04,635.793"/><path d="M1596,563.254C1596,563.254,1386.804,572.358,1310.553,566.877C1259.051,563.175,1221.186,557.241,1181.91,546.616C1146.882,537.141,1120.056,524.694,1085.427,508.954C1042.81,489.583,984.633,459.145,946.36,436.364C917.891,419.419,891.611,405.068,874.37,387.879C861.441,374.988,847.864,358.11,846.981,347.475C846.448,341.056,850.284,335.949,854.395,331.313C859.345,325.73,866.302,321.916,876.382,317.834C894.397,310.54,924.86,304.507,956.784,299.898C1002.54,293.291,1061.022,291.008,1125.628,288.517C1212.44,285.17,1362.204,290.605,1431.156,285.532C1466.694,282.917,1484.655,280.284,1511.558,274.438C1539.594,268.346,1596,249.163,1596,249.163"/><path d="M1273.413,4C1273.413,4,1414.531,66.716,1463.317,82.888C1492.704,92.629,1512.507,97.126,1535.678,101.092C1556.557,104.666,1596,106.693,1596,106.693"/><path d="M715.578,795.667C715.578,795.667,612.198,772.738,562.814,750.132C510.144,726.022,452.407,674.43,410.05,652.456C382.237,638.027,364.516,630.183,337.688,622.862C306.505,614.351,274.739,610.797,233.166,607.639C172.472,603.029,8.04,606.061,8.04,606.061"/><path d="M1596,599.529C1596,599.529,1380.26,605.407,1302.513,599.261C1250.72,595.167,1212.256,589.243,1173.869,578.916C1141.117,570.104,1122.318,561.042,1085.427,544.736C1020.184,515.897,876.369,441.763,820.168,412.121C793.543,398.078,777.216,390.676,761.986,379.798C750.751,371.774,740.598,364.521,735.079,355.556C730.482,348.088,727.835,338.474,728.47,331.313C729.006,325.271,731.841,320.267,736.141,315.152C742.062,308.108,753.276,300.815,763.819,295.565C775.58,289.709,787.52,286.265,804.02,282.768C829.048,277.464,856.092,275.424,900.503,272.161C998.716,264.946,1276.933,266.507,1374.874,254.52C1419.479,249.061,1445.076,245.058,1471.242,234.343C1491.637,225.992,1513.83,213.919,1521.571,202.02C1526.528,194.4,1528.02,185.745,1525.325,177.778C1521.607,166.787,1509.73,158.315,1491.638,145.455C1444.906,112.235,1214.07,4.043,1214.07,4.043"/><path d="M4,32.925C4,32.925,357.948,48.57,442.211,42.826C476.665,40.478,492.094,38.074,514.573,31.245C535.774,24.804,573.797,4,573.797,4"/><path d="M955.728,796C955.728,796,805.02,775.339,747.739,763.494C706.719,755.012,674.43,747.63,643.216,736.495C616.374,726.919,597.982,718.397,570.737,703.03C531.586,680.949,474.797,631.841,434.171,610.694C404.814,595.413,382.262,586.805,353.769,579.94C323.516,572.651,297.004,571.118,257.286,569.524C193.622,566.968,8.04,576.328,8.04,576.328"/><path d="M1596,636.874C1596,636.874,1363.919,638.388,1286.432,632.271C1239.471,628.564,1207.84,624.646,1173.869,616.1C1144.396,608.686,1126.978,601.003,1093.467,586.732C1034.114,561.455,929.867,501.633,852.261,468.721C783.008,439.35,689.738,416.017,651.182,395.96C634.057,387.051,623.648,381.942,616.657,371.717C610.447,362.635,607.701,349.993,608.718,339.394C609.771,328.432,615.779,317.359,623.632,307.071C633.578,294.041,651.554,279.523,667.337,270.321C682.322,261.584,697.149,256.789,715.578,252.354C738.686,246.794,761.334,244.917,795.98,243.004C858.706,239.541,981.82,246.176,1061.307,244.45C1126.245,243.04,1186.134,241.172,1238.191,235.801C1279.746,231.513,1320.919,227.558,1349.656,218.182C1369.37,211.75,1388.482,202.809,1396.912,193.939C1401.782,188.815,1403.708,183.25,1404.191,177.778C1404.659,172.471,1403.279,167.481,1400.113,161.616C1394.975,152.099,1383.789,140.682,1370.423,129.293C1349.983,111.875,1316.775,91.721,1284.761,72.727C1246.483,50.016,1155.089,4,1155.089,4"/><path d="M4,82.929C4,82.929,145.981,71.609,225.126,72.267C316.968,73.03,457.62,99.805,522.613,91.569C555.462,87.406,571.132,80.476,594.975,67.838C622.893,53.041,677.587,4,677.587,4"/><path d="M1121.904,796C1121.904,796,1092.98,776.059,1077.387,769.136C1062.037,762.322,1051.678,758.932,1029.146,754.601C979.75,745.107,854.151,744.733,787.94,733.533C740.509,725.509,702.079,716.576,667.493,703.03C638.972,691.86,621.729,681.462,593.28,662.626C549.166,633.419,472.95,559.949,434.171,536.286C414.375,524.207,403.608,518.729,385.93,514.474C366.433,509.781,348.728,510.252,321.608,511.398C274.455,513.391,185.536,531.856,128.643,537.067C83.834,541.172,8.04,543.157,8.04,543.157"/><path d="M1596,678.235C1596,678.235,1530.808,669.826,1487.437,668.076C1422.927,665.473,1306.797,674.388,1246.231,671.128C1209.425,669.146,1185.395,667.303,1157.789,660.444C1132.037,654.047,1113.946,646.245,1085.427,632.643C1040.204,611.075,966.906,559.857,916.583,535.242C878.293,516.512,849.191,504.606,812.06,492.691C771.863,479.792,730.485,469.637,683.417,461.972C627.653,452.891,535.793,455.768,498.492,445.574C481.144,440.833,469.175,435.474,462.244,428.283C457.654,423.521,456.108,418.184,455.251,412.121C454.242,404.978,455.205,396.969,458.361,387.879C463.162,374.052,473.697,357.341,487.471,339.394C508.477,312.024,550.679,267.052,578.894,244.827C598.776,229.166,613.9,218.82,635.176,211.695C658.86,203.764,681.348,203.227,715.578,202.471C775.723,201.142,892.926,217.536,964.824,219.958C1019.543,221.802,1062.809,222.46,1109.548,219.569C1153.775,216.834,1203.88,213.269,1238.191,203.947C1262.619,197.31,1287.966,187.474,1298.442,177.778C1303.969,172.662,1306.085,167.161,1307,161.616C1307.865,156.37,1307.277,151.567,1304.393,145.455C1299.163,134.371,1283.893,118.15,1268.825,105.051C1249.54,88.285,1222.42,72.272,1195.185,56.566C1163.749,38.437,1090.134,4,1090.134,4"/><path d="M4,130.386C4,130.386,102.073,110.403,152.764,107.612C205.185,104.726,270.258,109.153,313.568,114.353C343.389,117.933,364.551,122.536,388.393,129.293C411.18,135.751,436.855,143.82,453.742,153.535C466.232,160.722,477.258,168.666,483.175,177.778C487.981,185.178,490.164,193.405,489.887,202.02C489.565,212.068,484.733,223.515,478.662,234.343C471.156,247.729,462.496,257.87,445.465,274.747C407.313,312.557,301.601,404.048,241.206,439.508C200.142,463.618,167.864,475.132,128.681,484.848C88.851,494.725,4,497.752,4,497.752"/><path d="M1253.563,796C1253.563,796,1248.844,775.615,1250.316,767.677C1251.492,761.329,1254.181,756.343,1258.744,751.515C1264.751,745.159,1275.576,739.672,1285.883,735.354C1297.785,730.366,1308.709,727.728,1326.633,724.667C1359.911,718.984,1424.978,711.614,1471.357,712.803C1514.517,713.91,1596,729.488,1596,729.488"/><path d="M1001.454,4C1001.454,4,1064.797,25.742,1093.467,39.089C1120.246,51.555,1147.472,65.719,1168.569,80.808C1186.239,93.446,1205.869,107.063,1213.294,121.212C1218.754,131.618,1220.63,145.193,1217.532,153.535C1214.859,160.732,1207.291,165.088,1199.443,169.697C1188.863,175.91,1175.571,180.22,1157.789,184.096C1128.304,190.524,1079.345,195.154,1037.186,195.761C990.826,196.428,937.794,192.564,891.003,185.859C846.887,179.537,796.324,169.963,763.819,157.814C741.817,149.59,721.648,141.504,711.405,129.293C703.662,120.063,699.604,108.608,700.567,96.97C701.788,82.2,713.724,63.03,726.336,48.485C741.117,31.436,787.255,4,787.255,4"/><path d="M627.136,527.536C640.111,521.291,658.059,519.302,675.377,518.044C695.197,516.604,718.375,518.379,739.698,521.213C761.259,524.079,781.839,528.549,804.02,535.261C828.996,542.819,858.836,554.231,881.763,565.657C901.466,575.475,919.361,586.297,934.254,597.98C947.123,608.076,960.215,618.518,967.027,630.303C972.831,640.344,978.498,653.829,975.483,662.626C972.455,671.462,960.361,677.955,948.744,683.149C932.555,690.387,907.161,693.371,884.422,695.269C859.217,697.373,829.849,696.625,804.02,693.685C779.497,690.894,754.859,685.809,733.078,678.788C713.279,672.406,694.869,664.348,678.307,654.545C662.689,645.302,648.281,634.517,635.974,622.222C623.945,610.206,610.527,595.287,605.057,581.818C600.682,571.044,597.677,558.484,601.213,549.495C604.826,540.312,616.35,532.727,627.136,527.536"/><path d="M4,224.318C4,224.318,15.866,202.689,25.165,193.939C35.593,184.128,50.044,176.095,64.914,169.697C81.468,162.574,101.212,158.064,120.603,154.583C141.117,150.901,162.365,149.105,184.925,148.767C209.911,148.392,239.884,149.828,264.004,153.535C284.884,156.745,304.628,160.708,321.608,167.928C336.783,174.38,353.825,183.11,361.809,193.087C367.788,200.559,371.151,209.402,370.633,218.182C370.03,228.395,362.858,239.918,354.781,250.505C344.264,264.291,327.189,277.198,309.022,290.909C285.812,308.426,253.297,329.049,225.126,344.652C198.509,359.395,169.566,373.968,144.724,382.69C124.689,389.725,105.73,394.589,88.442,396.074C74.017,397.313,59.917,396.839,48.241,393.573C38.226,390.771,29.195,386.63,22.002,379.798C14.15,372.34,4,349.416,4,349.416"/><path d="M844.221,49.543C853.765,43.637,864.371,40.2,876.382,37.408C890.643,34.092,908.55,32.618,924.623,32.756C940.711,32.894,955.88,34.827,972.864,38.245C992.577,42.212,1016.254,49.057,1035.653,56.566C1053.474,63.463,1071.194,71.865,1085.24,80.808C1096.985,88.286,1108.827,95.971,1115.266,105.051C1120.524,112.465,1125.718,122.111,1123.901,129.293C1121.934,137.064,1111.199,144.415,1101.508,149.449C1089.086,155.903,1073.481,158.759,1053.266,160.511C1020.154,163.379,959.66,161.618,920.649,153.535C888.051,146.781,851.057,134.115,833.738,121.212C823.827,113.828,817.604,105.53,815.451,96.97C813.517,89.276,815.282,80.107,819.204,72.727C823.829,64.025,834.715,55.425,844.221,49.543"/><path d="M1436.21,796C1436.21,796,1469.25,784.89,1487.437,784.455C1507.946,783.964,1553.205,796,1553.205,796"/></svg>
